<svg xmlns="http://www.w3.org/2000/svg" viewBox="0 0 180 108" width="100"><g fill="none" fill-rule="evenodd"><rect width="180" height="108" fill="#007459" rx="6"></rect><path fill="#FFF" d="M33.5053997,67.7231278 L33.5053997,55.1367066 L28.6047293,64.5095735 L26.5962579,64.5095735 L21.6955875,55.1367066 L21.6955875,67.7231278 L18,67.7231278 L18,48.709598 L21.9633837,48.709598 L27.5871038,59.5285642 L33.2643831,48.709598 L37.2009872,48.709598 L37.2009872,67.7231278 L33.5053997,67.7231278 Z M40.4224179,67.7231278 L40.4224179,53.6906072 L44.0108869,53.6906072 L44.0108869,67.7231278 L40.4224179,67.7231278 Z M40.4224179,51.735695 L40.4224179,48.1740056 L44.0108869,48.1740056 L44.0108869,51.735695 L40.4224179,51.735695 Z M52.1597676,67.990924 C50.9814584,67.990924 49.8299463,67.8034685 48.7051966,67.428552 C47.580447,67.0536354 46.6163903,66.5180484 45.8129977,65.8217748 L47.1519787,63.5722868 C48.0089308,64.1792945 48.843554,64.6390067 49.6558731,64.9514372 C50.4681923,65.2638676 51.2760361,65.4200805 52.0794287,65.4200805 C52.7935555,65.4200805 53.3559218,65.2861838 53.7665447,65.0183862 C54.1771676,64.7505887 54.382476,64.3667513 54.382476,63.8668626 C54.382476,63.3669739 54.1414618,63.0009894 53.6594263,62.7688982 C53.1773907,62.536807 52.391863,62.2690135 51.3028197,61.9655096 C50.3923081,61.7155652 49.6157069,61.4745511 48.9729928,61.2424599 C48.3302788,61.0103687 47.8125446,60.7470384 47.4197749,60.4524611 C47.0270052,60.1578838 46.7413588,59.8186787 46.5628271,59.4348356 C46.3842954,59.0509924 46.2950309,58.5912802 46.2950309,58.0556852 C46.2950309,57.3415584 46.4333909,56.698854 46.710115,56.1275526 C46.9868391,55.5562511 47.3751397,55.0697596 47.8750284,54.6680633 C48.3749172,54.266367 48.9595997,53.9584044 49.6290935,53.7441664 C50.2985874,53.5299284 51.0260931,53.422811 51.8116325,53.422811 C52.8649695,53.422811 53.8513423,53.5745606 54.7707805,53.8780645 C55.6902187,54.1815684 56.5337682,54.6725232 57.3014545,55.3509436 L55.855355,57.5200928 C55.1412283,56.9844977 54.4494284,56.5917339 53.7799345,56.3417895 C53.1104407,56.0918451 52.4454201,55.9668748 51.7848529,55.9668748 C51.1778451,55.9668748 50.6690375,56.0918451 50.2584146,56.3417895 C49.8477917,56.5917339 49.6424833,56.9934241 49.6424833,57.5468724 C49.6424833,57.7968168 49.6915788,58.0021251 49.7897712,58.1628036 C49.8879637,58.3234822 50.0441765,58.4663054 50.2584146,58.5912775 C50.4726526,58.7162497 50.7538358,58.8367568 51.1019726,58.9528024 C51.4501094,59.068848 51.8830422,59.1893551 52.4007841,59.3143273 C53.3648553,59.5642716 54.1905519,59.8142123 54.8778989,60.0641566 C55.5652459,60.314101 56.1276123,60.5997474 56.565015,60.9211044 C57.0024176,61.2424615 57.3237698,61.6129092 57.5290813,62.0324586 C57.7343927,62.4520081 57.8370469,62.9563526 57.8370469,63.5455071 C57.8370469,64.9202012 57.3282392,66.0047649 56.3106086,66.7992309 C55.292978,67.5936969 53.9093781,67.990924 52.1597676,67.990924 Z M65.0754205,67.990924 C63.8971114,67.990924 62.7455992,67.8034685 61.6208496,67.428552 C60.4961,67.0536354 59.5320433,66.5180484 58.7286507,65.8217748 L60.0676317,63.5722868 C60.9245838,64.1792945 61.7592069,64.6390067 62.5715261,64.9514372 C63.3838453,65.2638676 64.1916891,65.4200805 64.9950817,65.4200805 C65.7092084,65.4200805 66.2715748,65.2861838 66.6821977,65.0183862 C67.0928206,64.7505887 67.2981289,64.3667513 67.2981289,63.8668626 C67.2981289,63.3669739 67.0571148,63.0009894 66.5750792,62.7688982 C66.0930436,62.536807 65.307516,62.2690135 64.2184727,61.9655096 C63.3079611,61.7155652 62.5313599,61.4745511 61.8886458,61.2424599 C61.2459317,61.0103687 60.7281976,60.7470384 60.3354279,60.4524611 C59.9426581,60.1578838 59.6570117,59.8186787 59.47848,59.4348356 C59.2999483,59.0509924 59.2106838,58.5912802 59.2106838,58.0556852 C59.2106838,57.3415584 59.3490438,56.698854 59.6257679,56.1275526 C59.9024921,55.5562511 60.2907927,55.0697596 60.7906814,54.6680633 C61.2905701,54.266367 61.8752526,53.9584044 62.5447465,53.7441664 C63.2142403,53.5299284 63.941746,53.422811 64.7272855,53.422811 C65.7806224,53.422811 66.7669952,53.5745606 67.6864334,53.8780645 C68.6058716,54.1815684 69.4494212,54.6725232 70.2171075,55.3509436 L68.771008,57.5200928 C68.0568812,56.9844977 67.3650813,56.5917339 66.6955875,56.3417895 C66.0260937,56.0918451 65.3610731,55.9668748 64.7005058,55.9668748 C64.0934981,55.9668748 63.5846904,56.0918451 63.1740675,56.3417895 C62.7634446,56.5917339 62.5581363,56.9934241 62.5581363,57.5468724 C62.5581363,57.7968168 62.6072318,58.0021251 62.7054242,58.1628036 C62.8036166,58.3234822 62.9598295,58.4663054 63.1740675,58.5912775 C63.3883056,58.7162497 63.6694887,58.8367568 64.0176255,58.9528024 C64.3657623,59.068848 64.7986952,59.1893551 65.3164371,59.3143273 C66.2805082,59.5642716 67.1062049,59.8142123 67.7935519,60.0641566 C68.4808989,60.314101 69.0432653,60.5997474 69.4806679,60.9211044 C69.9180706,61.2424615 70.2394228,61.6129092 70.4447342,62.0324586 C70.6500457,62.4520081 70.7526998,62.9563526 70.7526998,63.5455071 C70.7526998,64.9202012 70.2438922,66.0047649 69.2262615,66.7992309 C68.2086309,67.5936969 66.8250311,67.990924 65.0754205,67.990924 Z M72.6887088,67.7231278 L72.6887088,53.6906072 L76.2771778,53.6906072 L76.2771778,67.7231278 L72.6887088,67.7231278 Z M72.6887088,51.735695 L72.6887088,48.1740056 L76.2771778,48.1740056 L76.2771778,51.735695 L72.6887088,51.735695 Z M85.6043618,67.990924 C84.4617589,67.990924 83.4352171,67.7945421 82.5247055,67.4017724 C81.6141939,67.0090026 80.8420559,66.4778788 80.2082684,65.808385 C79.5744809,65.1388912 79.0879894,64.3667532 78.7487792,63.4919479 C78.409569,62.6171426 78.2399664,61.6977182 78.2399664,60.7336471 C78.2399664,59.7517228 78.409569,58.823372 78.7487792,57.9485667 C79.0879894,57.0737614 79.5744809,56.3016234 80.2082684,55.6321296 C80.8420559,54.9626358 81.6141939,54.4315119 82.5247055,54.0387422 C83.4352171,53.6459725 84.4617589,53.4495906 85.6043618,53.4495906 C86.7469646,53.4495906 87.7690432,53.6459725 88.6706282,54.0387422 C89.5722132,54.4315119 90.339888,54.9626358 90.9736755,55.6321296 C91.607463,56.3016234 92.0939545,57.0737614 92.4331647,57.9485667 C92.7723749,58.823372 92.9419775,59.7517228 92.9419775,60.7336471 C92.9419775,61.6977182 92.7723749,62.6171426 92.4331647,63.4919479 C92.0939545,64.3667532 91.6119262,65.1388912 90.9870653,65.808385 C90.3622044,66.4778788 89.5945296,67.0090026 88.684018,67.4017724 C87.7735064,67.7945421 86.7469646,67.990924 85.6043618,67.990924 Z M81.9355539,60.7336471 C81.9355539,61.358508 82.0292816,61.9253376 82.2167399,62.4341529 C82.4041982,62.9429683 82.6630652,63.3848276 82.9933489,63.7597441 C83.3236325,64.1346607 83.7119331,64.4247703 84.1582623,64.6300817 C84.6045915,64.8353932 85.0866199,64.9380474 85.6043618,64.9380474 C86.1221037,64.9380474 86.604132,64.8353932 87.0504612,64.6300817 C87.4967904,64.4247703 87.885091,64.1346607 88.2153747,63.7597441 C88.5456583,63.3848276 88.8045253,62.938505 88.9919836,62.4207631 C89.1794419,61.9030212 89.2731696,61.3317284 89.2731696,60.7068675 C89.2731696,60.0998597 89.1794419,59.5374934 88.9919836,59.0197515 C88.8045253,58.5020096 88.5456583,58.055687 88.2153747,57.6807705 C87.885091,57.3058539 87.4967904,57.0157443 87.0504612,56.8104328 C86.604132,56.6051214 86.1221037,56.5024672 85.6043618,56.5024672 C85.0866199,56.5024672 84.6045915,56.6095846 84.1582623,56.8238227 C83.7119331,57.0380607 83.3236325,57.3326336 82.9933489,57.7075501 C82.6630652,58.0824666 82.4041982,58.5287892 82.2167399,59.0465311 C82.0292816,59.564273 81.9355539,60.1266394 81.9355539,60.7336471 Z M108,67.7231278 L104.411531,67.7231278 L104.411531,59.8499197 C104.411531,58.72517 104.215149,57.9039366 103.822379,57.3861947 C103.42961,56.8684528 102.885096,56.6095857 102.188823,56.6095857 C101.831759,56.6095857 101.465775,56.6809973 101.090858,56.8238227 C100.715942,56.966648 100.363347,57.1674931 100.033063,57.4263641 C99.7027796,57.685235 99.4037435,57.9931976 99.135946,58.350261 C98.8681484,58.7073243 98.6717665,59.1000882 98.5467943,59.5285642 L98.5467943,67.7231278 L94.9583253,67.7231278 L94.9583253,53.6906072 L98.1986593,53.6906072 L98.1986593,56.2882303 C98.7164012,55.3955718 99.466223,54.6993087 100.448147,54.1994199 C101.430072,53.6995312 102.536951,53.4495906 103.76882,53.4495906 C104.643625,53.4495906 105.357741,53.6102667 105.91119,53.9316238 C106.464638,54.2529808 106.893108,54.672524 107.196611,55.1902659 C107.500115,55.7080078 107.709887,56.2971535 107.825932,56.9577208 C107.941978,57.618288 108,58.2877718 108,58.9661922 L108,67.7231278 Z M18,89.8522038 L18,70.838674 L21.6955875,70.838674 L21.6955875,86.6118698 L31.3898097,86.6118698 L31.3898097,89.8522038 L18,89.8522038 Z M36.7935519,90.12 C36.1151315,90.12 35.4813535,90.0084194 34.8921989,89.7852548 C34.3030443,89.5620901 33.7942366,89.2496644 33.3657606,88.8479681 C32.9372845,88.4462718 32.6025426,87.9776331 32.3615249,87.4420381 C32.1205071,86.906443 32,86.3172972 32,85.6745832 C32,85.0140159 32.1472864,84.4025541 32.4418637,83.8401792 C32.736441,83.2778044 33.1470577,82.8002393 33.6737262,82.4074696 C34.2003947,82.0146999 34.8297095,81.7067373 35.5616894,81.4835727 C36.2936693,81.2604081 37.0970499,81.1488275 37.9718551,81.1488275 C38.5967161,81.1488275 39.2081779,81.2023862 39.8062591,81.3095052 C40.4043402,81.4166242 40.935464,81.5683739 41.3996464,81.7647587 L41.3996464,80.9613701 C41.3996464,80.0330054 41.1363161,79.3188893 40.6096477,78.8190006 C40.0829792,78.3191118 39.3019148,78.0691712 38.266431,78.0691712 C37.5165979,78.0691712 36.7846289,78.203068 36.0705022,78.4708655 C35.3563754,78.7386631 34.6244065,79.1314269 33.8745734,79.6491688 L32.776609,77.3729011 C34.579779,76.1767388 36.5257452,75.5786666 38.614566,75.5786666 C40.6319741,75.5786666 42.1985662,76.0740846 43.3143892,77.0649355 C44.4302123,78.0557864 44.9881154,79.4884817 44.9881154,81.3630644 L44.9881154,85.7281424 C44.9881154,86.103059 45.0550638,86.3708525 45.1889626,86.531531 C45.3228614,86.6922095 45.5415594,86.781474 45.8450633,86.7993272 L45.8450633,89.8522038 C45.2380555,89.977176 44.7113949,90.0396611 44.2650657,90.0396611 C43.5866453,90.0396611 43.0644479,89.8879115 42.698458,89.5844076 C42.332468,89.2809037 42.1048435,88.8792135 42.0155777,88.3793247 L41.9352388,87.6027158 C41.3103779,88.4239615 40.5516296,89.0488131 39.6589712,89.4772891 C38.7663127,89.9057652 37.8111825,90.12 36.7935519,90.12 Z M37.7444559,87.4955973 C38.3514637,87.4955973 38.9272197,87.3884799 39.4717414,87.1742419 C40.016263,86.9600038 40.4402694,86.6743574 40.7437733,86.317294 C41.136543,86.0137902 41.3329249,85.674585 41.3329249,85.2996685 L41.3329249,83.6928913 C40.9044489,83.5322128 40.4402734,83.4027793 39.9403847,83.3045868 C39.440496,83.2063944 38.9584677,83.1572989 38.4942853,83.1572989 C37.5659205,83.1572989 36.8071722,83.3670705 36.2180176,83.78662 C35.628863,84.2061695 35.3342902,84.7372933 35.3342902,85.3800074 C35.3342902,85.9870151 35.5663779,86.4913596 36.0305603,86.8930559 C36.4947427,87.2947522 37.0660355,87.4955973 37.7444559,87.4955973 Z M60.9167031,89.8522038 L57.3282341,89.8522038 L57.3282341,81.9789957 C57.3282341,80.854246 57.1318522,80.0330126 56.7390825,79.5152707 C56.3463128,78.9975288 55.8017993,78.7386617 55.1055257,78.7386617 C54.7484623,78.7386617 54.3824779,78.8100733 54.0075613,78.9528987 C53.6326448,79.095724 53.28005,79.2965692 52.9497663,79.5554401 C52.6194827,79.8143111 52.3204466,80.1222736 52.0526491,80.479337 C51.7848515,80.8364004 51.5884696,81.2291642 51.4634975,81.6576402 L51.4634975,89.8522038 L47.8750284,89.8522038 L47.8750284,75.8196832 L51.1153624,75.8196832 L51.1153624,78.4173063 C51.6331043,77.5246478 52.3829261,76.8283847 53.3648504,76.328496 C54.3467747,75.8286072 55.4536546,75.5786666 56.6855233,75.5786666 C57.5603285,75.5786666 58.2744446,75.7393427 58.8278928,76.0606998 C59.381341,76.3820568 59.8098107,76.8016 60.1133145,77.3193419 C60.4168184,77.8370838 60.62659,78.4262295 60.7426356,79.0867968 C60.8586812,79.747364 60.9167031,80.4168478 60.9167031,81.0952682 L60.9167031,89.8522038 Z M70.1635482,90.12 C69.0387986,90.12 68.0211832,89.9280813 67.1106716,89.5442382 C66.20016,89.160395 65.4235588,88.6381977 64.7808447,87.9776304 C64.1381306,87.3170632 63.6427126,86.5493884 63.2945758,85.6745832 C62.946439,84.7997779 62.7723732,83.8803535 62.7723732,82.9162824 C62.7723732,81.9165049 62.9419758,80.9747644 63.281186,80.0910325 C63.6203962,79.2073006 64.111351,78.4306994 64.7540651,77.7612056 C65.3967792,77.0917118 66.1778436,76.560588 67.0972818,76.1678182 C68.01672,75.7750485 69.047725,75.5786666 70.1903278,75.5786666 C71.3329306,75.5786666 72.3550092,75.7750485 73.2565943,76.1678182 C74.1581793,76.560588 74.925854,77.0872485 75.5596415,77.7478158 C76.193429,78.408383 76.6754574,79.1760578 77.005741,80.0508631 C77.3360246,80.9256684 77.501164,81.8361663 77.501164,82.7823843 C77.501164,83.0144755 77.4967007,83.2376367 77.4877741,83.4518747 C77.4788476,83.6661128 77.4565314,83.8446418 77.4208251,83.9874671 L66.5750792,83.9874671 C66.6286387,84.5409154 66.7625355,85.0318702 66.9767735,85.4603462 C67.1910115,85.8888223 67.4677315,86.2548067 67.8069417,86.5583106 C68.1461519,86.8618145 68.5299893,87.0939022 68.9584653,87.2545807 C69.3869414,87.4152592 69.8332639,87.4955973 70.2974463,87.4955973 C71.0115731,87.4955973 71.6855201,87.3215315 72.3193076,86.9733947 C72.9530951,86.6252579 73.3860279,86.1655457 73.6181191,85.5942443 L76.6977754,86.4511921 C76.1800335,87.5223823 75.3543368,88.4016376 74.2206606,89.0889846 C73.0869843,89.7763317 71.7346271,90.12 70.1635482,90.12 Z M73.8055765,81.6576402 C73.7163106,80.6043033 73.32801,79.7607537 72.640663,79.1269662 C71.953316,78.4931787 71.1186929,78.1762897 70.1367686,78.1762897 C69.654733,78.1762897 69.2039473,78.261091 68.7843978,78.4306961 C68.3648483,78.6003012 67.9944006,78.8368521 67.6730436,79.140356 C67.3516866,79.4438599 67.0883563,79.8098444 66.8830448,80.2383204 C66.6777334,80.6667965 66.5572263,81.1398983 66.52152,81.6576402 L73.8055765,81.6576402 Z"></path></g></svg>